<?xml version="1.0" standalone="no"?>
<!DOCTYPE svg PUBLIC "-//W3C//DTD SVG 20010904//EN"
 "http://www.w3.org/TR/2001/REC-SVG-20010904/DTD/svg10.dtd">
<svg version="1.0" xmlns="http://www.w3.org/2000/svg"
 width="2756.000000pt" height="578.000000pt" viewBox="0 0 2756.000000 578.000000"
 preserveAspectRatio="xMidYMid meet">

<g transform="translate(0.000000,578.000000) scale(0.100000,-0.100000)"
fill="#1e3a5f" stroke="none">
<path d="M2241 5676 c-77 -87 -86 -94 -115 -90 -66 9 -191 23 -193 21 -1 -1
-5 -57 -9 -123 l-7 -121 -93 -39 c-52 -22 -94 -43 -94 -47 0 -5 18 -51 40
-104 l39 -95 -64 -76 -64 -77 60 -61 61 -61 -79 -37 c-43 -20 -106 -55 -140
-78 -37 -24 -69 -38 -78 -34 -9 3 -121 64 -250 136 -128 71 -236 130 -240 130
-9 0 -547 -426 -715 -566 -164 -137 -229 -203 -259 -262 -28 -55 -26 -84 6
-122 24 -29 31 -32 66 -27 22 3 74 23 116 45 101 53 137 59 192 35 55 -25 100
-75 144 -163 78 -154 111 -338 102 -567 -6 -161 -21 -258 -69 -428 -84 -303
-283 -710 -505 -1033 l-85 -124 18 -41 c28 -65 87 -166 139 -236 188 -256 440
-420 1074 -701 616 -272 858 -426 1043 -657 l52 -65 20 28 c42 61 195 209 281
274 178 133 376 238 780 415 542 237 778 377 976 582 47 48 107 118 133 155
58 82 137 238 128 252 -3 6 -47 72 -98 146 -258 382 -455 815 -524 1152 -56
275 -48 524 25 737 55 162 141 272 224 286 37 6 53 1 149 -44 59 -28 120 -51
135 -51 41 0 77 41 77 86 0 80 -63 154 -300 350 -169 140 -640 513 -673 532
-20 13 -41 3 -266 -122 -134 -75 -247 -136 -251 -136 -4 0 -46 24 -93 53 -47
30 -111 64 -142 77 l-57 23 63 63 62 62 -62 73 c-33 40 -61 76 -61 79 0 4 18
50 40 104 l39 97 -62 28 c-34 15 -77 33 -94 40 -18 8 -33 21 -33 30 -2 42 -18
223 -21 226 -2 2 -53 -2 -112 -9 l-108 -12 -86 93 c-47 51 -88 93 -92 93 -3 0
-44 -43 -90 -94z m79 -311 c0 -261 -2 -305 -15 -305 -8 0 -18 16 -24 38 -5 20
-33 127 -61 236 l-51 200 68 68 c37 37 71 68 75 68 5 0 8 -137 8 -305z m114
-69 c-38 -154 -63 -236 -71 -236 -10 0 -13 65 -13 307 l0 308 71 -72 72 -71
-59 -236z m-304 -4 c115 -203 131 -236 118 -248 -12 -13 -32 5 -152 131 l-139
146 7 87 c8 101 16 137 26 125 4 -4 67 -113 140 -241z m568 142 l12 -106 -69
-77 c-129 -141 -208 -214 -226 -207 -18 7 -30 -16 160 319 55 97 103 177 106
177 3 0 11 -48 17 -106z m-688 -309 c195 -116 200 -119 180 -139 -13 -13 -34
-9 -165 30 -82 25 -153 48 -157 52 -9 9 -68 160 -68 173 0 7 8 6 23 -3 12 -8
96 -59 187 -113z m857 113 c-3 -7 -19 -50 -37 -94 l-32 -81 -156 -46 c-86 -26
-160 -43 -164 -39 -21 22 3 42 182 151 107 66 199 120 204 120 4 1 6 -5 3 -11z
m-458 -227 c35 -25 60 -61 67 -98 l7 -33 -147 0 -146 0 0 28 c0 98 137 163
219 103z m-241 -103 l-3 -33 -88 -12 c-49 -7 -116 -20 -149 -29 l-61 -15 -54
53 c-51 50 -53 53 -31 60 13 3 105 6 206 7 l183 1 -3 -32z m710 24 c22 -7 20
-10 -31 -60 l-53 -53 -85 21 c-46 11 -112 23 -146 26 l-63 7 0 33 0 34 178 -1
c97 -1 187 -4 200 -7z m-348 -227 c52 -8 129 -24 170 -35 104 -29 282 -117
366 -183 l71 -54 224 129 c123 71 234 134 246 140 20 10 48 -10 272 -189 l250
-200 -59 -79 c-72 -96 -168 -280 -205 -391 -86 -264 -98 -561 -34 -873 72
-354 252 -760 505 -1136 l85 -127 -47 -71 c-27 -39 -102 -125 -169 -191 -184
-185 -333 -275 -720 -435 -218 -91 -502 -222 -619 -286 -184 -102 -392 -251
-490 -352 l-39 -41 -81 72 c-251 224 -492 359 -1099 617 -305 130 -388 173
-519 267 -134 96 -308 277 -373 390 l-18 31 90 139 c208 318 333 569 428 865
190 590 134 1101 -166 1517 -49 68 -58 86 -47 96 37 34 470 377 482 381 8 3
25 -1 38 -9 13 -9 121 -72 240 -140 l217 -125 68 54 c227 181 604 270 933 219z"/>
<path d="M2171 3968 c-68 -183 -132 -349 -142 -368 -20 -41 -55 -75 -86 -85
-13 -3 -23 -14 -23 -23 0 -15 15 -17 130 -17 112 0 130 2 130 16 0 9 -16 22
-40 32 -53 20 -59 48 -30 137 l23 70 124 0 123 0 11 -27 c5 -15 17 -53 26 -85
15 -54 15 -59 -1 -77 -10 -11 -30 -21 -45 -23 -17 -2 -27 -10 -29 -23 -3 -19
3 -20 183 -20 159 0 185 2 185 15 0 9 -19 24 -42 35 -31 15 -48 32 -63 62 -11
23 -74 192 -140 377 -114 320 -121 336 -145 336 -24 0 -31 -17 -149 -332z
m139 -35 c24 -71 45 -134 48 -140 3 -10 -20 -13 -97 -13 -70 0 -101 4 -101 12
0 18 93 268 100 268 3 0 26 -57 50 -127z"/>
<path d="M3470 4192 c-49 -24 -114 -92 -144 -150 -14 -28 -48 -108 -76 -178
-28 -70 -61 -142 -73 -158 -40 -59 -319 -365 -684 -751 l-161 -169 27 -17 c38
-24 92 -84 89 -99 -2 -7 2 -14 8 -17 12 -4 716 721 861 886 87 100 95 122 118
335 11 101 25 179 45 240 16 49 28 91 27 92 -1 2 -18 -5 -37 -14z"/>
<path d="M1112 4188 c30 -77 59 -194 68 -270 32 -278 36 -290 122 -386 28 -31
231 -243 451 -470 l400 -414 24 50 c24 52 52 76 97 88 24 6 7 26 -292 333
-443 454 -485 500 -524 561 -52 82 -94 169 -113 236 -35 119 -102 213 -185
258 -36 19 -51 24 -48 14z"/>
<path d="M1273 3039 c-99 -13 -169 -71 -194 -163 -30 -111 28 -215 151 -272
181 -85 202 -97 221 -127 45 -75 10 -165 -74 -188 -109 -29 -211 35 -258 164
-10 28 -19 37 -36 37 -23 0 -23 -1 -23 -120 l0 -120 25 0 c20 0 27 6 32 30 3
17 7 30 9 30 2 0 20 -11 40 -25 119 -81 305 -64 402 36 66 67 77 188 27 275
-30 51 -71 80 -216 147 -153 72 -191 118 -158 190 6 13 23 31 39 40 35 21 121
22 159 3 38 -20 86 -77 102 -120 10 -27 19 -36 36 -36 23 0 23 2 23 105 l0
105 -29 0 c-21 0 -30 -6 -34 -21 l-6 -21 -34 21 c-41 25 -133 39 -204 30z"/>
<path d="M2930 3010 c0 -15 7 -20 29 -20 20 0 36 -9 50 -26 20 -26 21 -38 21
-324 0 -281 -1 -299 -20 -322 -11 -14 -33 -28 -50 -31 -18 -4 -30 -13 -30 -22
0 -13 25 -15 180 -15 173 0 180 1 180 20 0 15 -7 20 -28 20 -57 0 -67 18 -70
132 l-2 103 34 40 c19 22 37 37 39 35 2 -3 38 -56 80 -118 100 -147 110 -187
50 -194 -17 -2 -29 -10 -31 -20 -3 -17 10 -18 167 -18 157 0 171 1 171 18 0 9
-10 22 -22 27 -21 9 -109 127 -264 352 l-56 82 72 100 c79 111 118 149 161
158 20 4 29 12 29 24 0 18 -10 19 -135 19 -128 0 -135 -1 -135 -20 0 -14 7
-20 23 -20 26 0 57 -28 57 -51 0 -33 -209 -329 -233 -329 -5 0 -7 76 -5 169 3
149 5 171 22 190 11 12 30 21 43 21 16 0 23 6 23 20 0 19 -7 20 -175 20 -168
0 -175 -1 -175 -20z"/>
<path d="M2324 2686 c-44 -19 -64 -53 -64 -106 l0 -45 598 -598 597 -597 69
69 69 70 -473 478 c-713 721 -735 743 -751 743 -8 -1 -28 -7 -45 -14z"/>
<path d="M1598 2042 l-557 -567 67 -68 67 -69 562 569 c308 312 559 571 556
576 -2 4 -12 7 -22 7 -22 0 -101 83 -101 105 0 8 -3 15 -7 14 -5 0 -259 -256
-565 -567z"/>
<path d="M2023 1661 c-50 -13 -83 -39 -100 -79 -20 -49 -11 -98 27 -137 l31
-32 -26 -11 c-34 -16 -59 -75 -52 -125 11 -80 62 -117 164 -117 71 0 119 24
145 71 34 63 14 154 -38 178 l-26 11 31 36 c50 56 41 152 -17 186 -35 20 -98
29 -139 19z m77 -91 c28 -28 25 -62 -8 -93 l-29 -28 -26 21 c-35 28 -37 82 -5
104 30 21 44 20 68 -4z m-11 -195 c32 -16 41 -33 41 -75 0 -29 -38 -70 -65
-70 -7 0 -24 9 -39 21 -35 28 -36 80 -1 114 28 29 28 29 64 10z"/>
<path d="M2370 1652 c-40 -21 -70 -72 -70 -120 0 -38 23 -87 47 -100 14 -8 12
-13 -17 -39 -61 -55 -50 -175 20 -217 73 -43 205 -26 250 31 44 56 38 148 -13
196 -21 20 -28 32 -19 34 38 14 55 119 27 172 -30 58 -152 81 -225 43z m128
-84 c37 -37 -12 -132 -57 -109 -23 13 -41 41 -41 67 0 43 68 72 98 42z m-1
-210 c29 -27 30 -71 3 -98 -57 -57 -132 29 -84 98 19 28 51 28 81 0z"/>
<path d="M2757 1639 c-69 -36 -98 -145 -59 -219 34 -65 131 -92 172 -48 l20
22 0 -38 c0 -43 -22 -91 -49 -106 -25 -13 -87 -13 -112 0 -17 10 -19 7 -19
-29 0 -38 2 -41 38 -50 53 -15 81 -13 129 9 74 33 105 109 105 252 0 75 -4 96
-26 142 -41 84 -117 108 -199 65z m113 -79 c41 -41 14 -130 -39 -130 -11 0
-29 12 -40 26 -54 69 19 164 79 104z"/>
<path d="M1697 1594 c-56 -48 -65 -59 -56 -75 7 -13 21 -19 44 -19 l35 0 0
-165 0 -165 45 0 45 0 0 240 0 240 -23 0 c-13 0 -51 -24 -90 -56z"/>
<path d="M7010 3933 c-12 -32 -161 -431 -332 -888 -170 -456 -328 -867 -350
-913 -68 -139 -183 -242 -270 -242 -27 0 -28 -2 -28 -54 l0 -53 355 0 355 -1
0 54 0 53 -55 6 c-72 9 -134 41 -162 84 -39 58 -32 136 28 317 l51 154 332 0
332 0 58 -178 c37 -113 59 -197 59 -228 1 -88 -45 -127 -174 -146 l-69 -10 0
-53 0 -52 500 0 500 -1 0 53 0 52 -59 13 c-118 25 -171 78 -240 240 -17 41
-175 473 -351 960 l-318 885 -70 3 -70 3 -22 -58z m68 -948 l128 -370 -138 -3
c-77 -1 -199 -1 -273 0 l-133 3 134 365 c158 431 145 397 151 385 2 -5 61
-176 131 -380z"/>
<path d="M15855 3979 c-140 -21 -272 -85 -365 -179 -110 -110 -162 -246 -163
-425 -1 -198 48 -323 177 -450 96 -94 188 -151 391 -240 288 -127 369 -184
427 -303 30 -60 33 -75 33 -157 0 -71 -5 -100 -22 -137 -29 -63 -102 -134
-171 -166 -52 -25 -68 -27 -177 -27 -101 0 -129 4 -177 23 -162 65 -293 231
-369 470 l-23 72 -63 0 -63 0 0 -340 0 -340 68 0 69 0 12 53 c6 30 16 70 22
90 l10 37 62 -52 c69 -57 190 -119 282 -144 95 -25 264 -29 370 -9 361 67 575
313 575 659 0 173 -35 285 -126 405 -88 117 -225 207 -533 347 -280 128 -363
192 -398 313 -31 107 0 220 79 286 109 92 307 98 454 15 112 -65 228 -223 266
-362 l12 -48 68 0 68 0 -5 78 c-3 42 -8 175 -11 295 l-6 218 -66 -3 -66 -3
-19 -63 c-19 -62 -19 -63 -41 -47 -107 79 -173 107 -303 130 -93 16 -184 18
-278 4z"/>
<path d="M8700 3415 c-118 -33 -213 -112 -265 -219 -78 -159 -68 -366 24 -500
62 -89 135 -143 327 -237 191 -93 260 -143 294 -210 73 -142 31 -293 -100
-362 -51 -27 -61 -29 -140 -25 -103 5 -168 34 -237 106 -48 51 -124 195 -144
275 l-11 47 -44 0 -44 0 0 -255 0 -255 48 0 48 0 13 65 c7 36 15 65 18 65 3 0
26 -18 51 -40 191 -168 528 -158 717 21 94 89 145 216 145 364 0 139 -40 248
-125 342 -63 71 -139 120 -343 221 -241 119 -286 166 -287 298 0 89 27 136
104 178 47 25 60 28 129 24 95 -4 154 -31 221 -99 48 -48 94 -130 116 -204 12
-39 14 -40 60 -43 l48 -3 -6 98 c-4 54 -7 153 -7 221 l0 122 -49 0 -48 0 -13
-45 c-7 -25 -14 -45 -16 -45 -2 0 -23 13 -45 30 -74 53 -142 73 -269 76 -82 3
-131 -1 -170 -11z"/>
<path d="M9560 3369 l0 -35 62 -12 c70 -13 110 -44 130 -101 10 -28 13 -176
13 -636 0 -580 -1 -601 -20 -640 -24 -48 -66 -74 -134 -82 l-51 -6 0 -38 0
-39 370 0 370 0 0 39 0 39 -50 7 c-59 8 -110 39 -129 80 -10 22 -16 83 -19
217 l-5 187 68 78 c38 43 71 79 75 81 6 2 211 -289 294 -418 70 -109 84 -178
42 -205 -13 -9 -47 -18 -75 -22 l-51 -6 0 -38 0 -39 360 0 360 0 0 38 c0 34
-4 39 -33 50 -56 20 -116 95 -387 482 -145 206 -272 387 -283 402 l-20 27 108
148 c239 327 271 359 376 386 53 13 54 14 57 53 l3 40 -281 0 -280 0 0 -38 c0
-33 3 -38 28 -43 106 -22 132 -42 132 -103 0 -77 -147 -301 -398 -607 -41 -49
-79 -92 -84 -94 -16 -5 -4 664 12 709 18 50 51 77 115 90 55 11 55 11 55 49
l0 38 -365 -1 -365 -1 0 -36z"/>
<path d="M11340 3369 c0 -36 0 -36 52 -43 74 -10 113 -37 135 -94 17 -44 18
-91 18 -647 0 -580 -1 -601 -20 -639 -27 -54 -61 -76 -128 -83 l-57 -6 0 -38
0 -39 648 0 647 0 0 235 0 235 -41 0 -42 0 -17 -67 c-33 -132 -95 -222 -183
-263 -60 -29 -192 -44 -270 -31 -176 28 -202 91 -202 485 l0 189 74 -6 c134
-10 191 -60 224 -195 l17 -72 40 0 40 0 0 325 0 325 -42 0 c-42 0 -43 -1 -43
-33 0 -58 -28 -131 -62 -164 -44 -43 -97 -63 -179 -70 l-69 -6 0 260 c0 143 3
281 6 307 6 44 9 46 48 57 24 7 90 9 161 7 144 -5 202 -26 266 -95 44 -48 66
-92 84 -168 l11 -50 48 -3 47 -3 -6 113 c-3 62 -8 159 -11 215 l-6 102 -594
-2 -594 -2 0 -36z"/>
<path d="M12810 3371 l0 -37 66 -11 c79 -14 116 -43 133 -106 9 -30 11 -213 9
-647 l-3 -605 -23 -36 c-26 -42 -81 -69 -142 -69 -40 0 -40 0 -40 -40 l0 -40
380 0 380 0 0 39 0 38 -57 6 c-67 7 -101 29 -128 83 -18 35 -20 63 -23 296
l-3 257 24 6 c76 19 147 -68 463 -567 l99 -158 223 0 222 0 0 39 c0 36 -2 39
-44 55 -55 21 -118 88 -194 204 -31 48 -124 182 -207 296 -82 115 -149 211
-148 214 1 3 27 13 57 23 116 35 205 112 254 217 24 51 27 68 26 162 0 84 -5
117 -23 162 -29 76 -103 156 -176 192 -112 55 -148 58 -657 61 l-468 2 0 -36z
m816 -99 c62 -32 109 -93 129 -167 25 -92 17 -271 -14 -337 -50 -104 -138
-148 -293 -148 l-88 0 0 318 c0 391 -9 366 129 360 73 -3 106 -9 137 -26z"/>
<path d="M16960 3370 l0 -37 51 -6 c64 -8 108 -33 134 -77 20 -34 20 -49 20
-655 0 -606 0 -621 -20 -655 -26 -44 -70 -69 -134 -77 l-51 -6 0 -37 0 -38
375 0 375 0 0 38 0 38 -60 10 c-76 14 -116 42 -130 90 -5 20 -10 119 -10 219
l0 182 66 76 c36 41 68 75 72 75 4 0 76 -101 159 -224 144 -210 203 -311 203
-346 0 -35 -31 -59 -90 -72 l-60 -12 0 -37 0 -36 355 -1 355 0 0 37 c0 34 -4
39 -40 55 -22 10 -56 36 -75 60 -20 23 -163 223 -319 444 l-284 403 149 204
c170 232 242 305 315 324 27 7 57 15 67 18 12 3 17 15 17 43 l0 38 -280 0
-280 0 0 -38 0 -39 55 -11 c72 -15 110 -56 100 -109 -16 -87 -151 -289 -379
-570 l-101 -124 -3 319 c-4 433 3 460 129 486 l59 12 0 37 0 38 -370 -1 -370
0 0 -38z"/>
<path d="M18740 3370 l0 -37 51 -6 c64 -8 108 -33 134 -77 19 -34 20 -53 23
-625 2 -404 0 -606 -8 -641 -17 -80 -77 -124 -167 -124 -32 0 -33 -2 -33 -39
l0 -39 380 0 380 0 0 39 c0 36 -2 39 -27 39 -48 0 -107 21 -135 47 -47 45 -50
80 -46 718 3 572 4 591 23 625 26 44 70 69 134 77 l51 6 0 38 0 37 -380 0
-380 0 0 -38z"/>
<path d="M19760 3370 l0 -37 51 -6 c64 -8 108 -33 134 -77 20 -34 20 -49 20
-655 0 -578 -1 -622 -18 -653 -24 -43 -69 -70 -134 -78 l-53 -6 0 -38 0 -38
375 0 375 0 0 38 0 38 -61 11 c-129 22 -139 44 -139 301 l0 192 63 73 c34 40
67 74 72 74 6 0 78 -99 160 -220 142 -208 205 -315 205 -349 0 -35 -31 -59
-90 -72 l-60 -12 0 -37 0 -36 355 -1 355 0 0 37 c0 33 -4 39 -38 54 -21 9 -52
31 -69 49 -17 18 -162 219 -322 446 l-291 414 53 71 c30 40 96 130 148 202
147 202 193 241 322 269 24 6 27 11 27 45 l0 39 -280 0 -280 0 0 -39 c0 -37 1
-39 39 -45 53 -8 99 -38 112 -70 15 -40 -11 -104 -91 -228 -88 -135 -297 -409
-377 -496 -12 -13 -14 36 -11 340 3 321 5 358 21 388 19 35 55 55 120 67 35 7
37 9 37 45 l0 39 -365 -1 -365 0 0 -38z"/>
<path d="M21540 3370 l0 -37 51 -6 c67 -8 107 -33 133 -82 21 -39 21 -50 21
-650 0 -600 0 -611 -21 -650 -26 -49 -66 -74 -133 -82 l-51 -6 0 -37 0 -36
660 -2 660 -2 0 68 c0 38 3 144 7 235 l6 167 -45 0 -45 0 -17 -61 c-37 -136
-105 -227 -201 -271 -45 -21 -65 -23 -190 -23 -131 0 -143 2 -184 25 -64 36
-90 92 -101 217 -12 131 -12 895 0 1008 13 126 51 171 153 182 l57 6 0 38 0
38 -380 -1 -380 0 0 -38z"/>
<path d="M22830 3370 c0 -37 1 -37 46 -44 71 -9 112 -34 137 -80 22 -40 22
-51 28 -531 5 -461 7 -495 27 -568 56 -202 175 -320 377 -373 99 -25 353 -26
445 -1 158 43 264 127 330 261 69 139 72 165 79 676 5 340 10 464 20 490 21
56 69 99 128 116 52 15 53 16 53 54 l0 38 -260 0 -260 0 0 -38 c0 -38 1 -39
53 -54 62 -18 109 -62 134 -126 15 -40 18 -94 21 -476 4 -462 0 -511 -49 -606
-34 -66 -103 -132 -172 -164 -59 -28 -69 -29 -202 -29 -126 0 -145 2 -193 24
-75 34 -136 105 -163 189 -31 102 -42 295 -36 697 5 381 7 406 54 456 26 28
82 49 132 49 29 0 31 2 31 39 l0 40 -380 -1 -380 0 0 -38z"/>
<path d="M24680 3370 l0 -37 50 -6 c68 -8 106 -33 133 -87 l22 -45 0 -600 0
-600 -22 -45 c-27 -54 -65 -79 -133 -87 l-50 -6 0 -37 0 -38 453 2 c427 2 457
4 534 24 258 68 371 205 361 437 -3 74 -9 102 -31 147 -34 70 -110 141 -190
178 -67 32 -203 70 -249 70 -49 0 -31 15 33 27 78 15 195 71 247 118 87 78
122 213 88 338 -40 148 -159 235 -371 272 -65 11 -173 14 -480 13 l-395 -1 0
-37z m748 -86 c47 -19 88 -58 115 -109 20 -36 22 -56 22 -180 0 -126 -2 -144
-22 -182 -42 -78 -107 -110 -240 -120 l-83 -6 0 288 c0 341 -5 325 102 325 39
0 84 -7 106 -16z m65 -734 c66 -32 113 -90 139 -173 17 -57 20 -87 16 -182 -4
-102 -7 -119 -36 -178 -45 -92 -90 -121 -191 -125 -62 -2 -82 1 -108 17 -78
49 -93 117 -93 435 l0 239 113 -5 c90 -4 122 -9 160 -28z"/>
<path d="M26190 3369 c0 -37 1 -39 33 -39 90 0 150 -44 167 -124 8 -35 10
-237 8 -641 -3 -569 -4 -591 -23 -624 -30 -50 -64 -71 -128 -78 l-57 -6 0 -37
0 -38 453 2 c502 2 528 4 673 71 156 71 234 192 234 366 0 174 -92 299 -273
370 -43 16 -112 35 -153 42 -41 6 -74 14 -74 17 0 3 28 12 63 19 73 15 187 67
239 111 21 17 51 60 70 97 28 58 32 77 32 142 0 91 -14 142 -54 203 -59 89
-193 155 -357 177 -44 6 -246 10 -465 10 l-388 -1 0 -39z m770 -91 c90 -46
130 -134 130 -286 -1 -207 -70 -285 -264 -299 l-86 -6 0 296 c0 341 -8 316
105 317 54 0 81 -5 115 -22z m56 -733 c65 -33 114 -94 136 -168 20 -66 16
-261 -6 -325 -36 -105 -112 -162 -216 -162 -64 0 -90 9 -128 44 -52 47 -56 70
-60 370 l-4 278 110 -3 c97 -4 115 -7 168 -34z"/>
</g>
</svg>
